# xmcd CD database file
#
# Track frame offsets:
#	150
#	14996
#	30994
#	45815
#	61858
#	72453
#	89840
#	107936
#	121311
#	137566
#	149442
#	164901
#	175292
#	193473
#	208991
#	219735
#
# Disc length: 3286 seconds
#
# Revision: 5
# Processed by: cddbd v1.5.2PL0 Copyright (c) Steve Scherf et al.
# Submitted via: CDex 1.50Beta7
#
DISCID=060cd410
DTITLE=Western Union - Country and Truckerhits
DYEAR=1997
DGENRE=Country
TTITLE0=Auf Der Autobahn
TTITLE1=Bärenstark
TTITLE2=Ich Möcht So Gerne Mal Nach Nashville (Live)
TTITLE3=Dieselcowboys
TTITLE4=Country - Music Nachts Bis Um Halb Vier
TTITLE5=Heiße Bräute Und Kühles Bier
TTITLE6=Silbervogel
TTITLE7=Unser Lied im Radio (Listen To The Radio) 
TTITLE8=Detroit City (Live)
TTITLE9=Six Days On The Road (Live)
TTITLE10=Some Broken Hearts Never Mind (Live)
TTITLE11=King Of The Road (Live)
TTITLE12=I Can´t Stop Loving You (Live)
TTITLE13=Green Green Grass Of Home (Live)
TTITLE14=Truck Drivin´ Man (Live)
TTITLE15=Country Roads (Live)
EXTD=YEAR: 1997
EXTT0=
EXTT1=
EXTT2=
EXTT3=
EXTT4=
EXTT5=
EXTT6=
EXTT7=
EXTT8=
EXTT9=
EXTT10=
EXTT11=
EXTT12=
EXTT13=
EXTT14=
EXTT15=
PLAYORDER=
